<svg width="82" height="58" viewBox="0 0 82 58" fill="none" xmlns="http://www.w3.org/2000/svg">
<path d="M66 8C66 5.79086 64.2091 4 62 4H8C5.79086 4 4 5.79086 4 8V38C4 40.2091 5.79086 42 8 42H48.029C48.0097 41.6681 48 41.3346 48 41C48 31.6112 55.6112 24 65 24C65.3346 24 65.6681 24.0097 66 24.029V8ZM65 28C57.8203 28 52 33.8203 52 41C52 42.7718 52.3545 44.4608 52.9963 46H8C3.58172 46 0 42.4183 0 38V8C0 3.58172 3.58172 0 8 0H62C66.4183 0 70 3.58172 70 8V28.9963C68.4608 28.3545 66.7718 28 65 28Z" fill="#061A3D"/>
<path d="M67 34C67 32.8954 66.1046 32 65 32C63.8954 32 63 32.8954 63 34V48C63 49.1046 63.8954 50 65 50C66.1046 50 67 49.1046 67 48V34Z" fill="#061A3D"/>
<path d="M72 43C73.1046 43 74 42.1046 74 41C74 39.8954 73.1046 39 72 39H58C56.8954 39 56 39.8954 56 41C56 42.1046 56.8954 43 58 43H72Z" fill="#061A3D"/>
<path d="M65 54C72.1797 54 78 48.1797 78 41C78 33.8203 72.1797 28 65 28C57.8203 28 52 33.8203 52 41C52 48.1797 57.8203 54 65 54ZM65 58C55.6112 58 48 50.3888 48 41C48 31.6112 55.6112 24 65 24C74.3888 24 82 31.6112 82 41C82 50.3888 74.3888 58 65 58Z" fill="#061A3D"/>
<path d="M2 13C0.89543 13 0 12.1046 0 11C0 9.89543 0.89543 9 2 9H68C69.1046 9 70 9.89543 70 11C70 12.1046 69.1046 13 68 13H2Z" fill="#061A3D"/>
<path d="M2 23C0.89543 23 0 22.1046 0 21C0 19.8954 0.89543 19 2 19H68C69.1046 19 70 19.8954 70 21C70 22.1046 69.1046 23 68 23H2Z" fill="#061A3D"/>
<path d="M11 39C9.89543 39 9 38.1046 9 37C9 35.8954 9.89543 35 11 35H21C22.1046 35 23 35.8954 23 37C23 38.1046 22.1046 39 21 39H11Z" fill="#061A3D"/>
<path d="M29 39C27.8954 39 27 38.1046 27 37C27 35.8954 27.8954 35 29 35H39C40.1046 35 41 35.8954 41 37C41 38.1046 40.1046 39 39 39H29Z" fill="#061A3D"/>
</svg>
