<svg width="88" height="69" viewBox="0 0 88 69" fill="none" xmlns="http://www.w3.org/2000/svg">
<path d="M86 32.5H2C1.46957 32.5 0.960859 32.7107 0.585786 33.0858C0.210714 33.4609 0 33.9696 0 34.5C0 35.0304 0.210714 35.5391 0.585786 35.9142C0.960859 36.2893 1.46957 36.5 2 36.5H86C86.5304 36.5 87.0391 36.2893 87.4142 35.9142C87.7893 35.5391 88 35.0304 88 34.5C88 33.9696 87.7893 33.4609 87.4142 33.0858C87.0391 32.7107 86.5304 32.5 86 32.5Z" fill="white"/>
<path d="M45.6367 45.3516C45.4422 45.1033 45.1938 44.9026 44.9102 44.7645C44.6267 44.6264 44.3154 44.5547 44 44.5547C43.6846 44.5547 43.3734 44.6264 43.0898 44.7645C42.8063 44.9026 42.5578 45.1033 42.3633 45.3516L28.3633 65.3516C28.1534 65.6512 28.0296 66.0027 28.0056 66.3678C27.9815 66.7329 28.058 67.0976 28.2267 67.4222C28.3955 67.7468 28.6501 68.019 28.9627 68.209C29.2754 68.399 29.6342 68.4997 30 68.5H58C58.3659 68.4997 58.7247 68.399 59.0374 68.209C59.35 68.019 59.6046 67.7468 59.7733 67.4222C59.9421 67.0976 60.0186 66.7329 59.9945 66.3678C59.9704 66.0027 59.8467 65.6512 59.6367 65.3516L45.6367 45.3516Z" fill="white"/>
<path d="M30 0.5H10C8.89543 0.5 8 1.39543 8 2.5V22.5C8 23.6046 8.89543 24.5 10 24.5H30C31.1046 24.5 32 23.6046 32 22.5V2.5C32 1.39543 31.1046 0.5 30 0.5Z" fill="white"/>
<path d="M78 0.5H58C56.8954 0.5 56 1.39543 56 2.5V22.5C56 23.6046 56.8954 24.5 58 24.5H78C79.1046 24.5 80 23.6046 80 22.5V2.5C80 1.39543 79.1046 0.5 78 0.5Z" fill="white"/>
</svg>
