<svg width="14" height="14" viewBox="0 0 14 14" fill="none" xmlns="http://www.w3.org/2000/svg">
<path d="M11.1719 0.328094H2.82813C2.1653 0.328783 1.52981 0.592396 1.06112 1.06109C0.592427 1.52978 0.328813 2.16526 0.328125 2.82809V11.1719C0.328813 11.8347 0.592427 12.4702 1.06112 12.9389C1.52981 13.4076 2.1653 13.6712 2.82813 13.6719H11.1719C11.8348 13.6712 12.4702 13.4076 12.9389 12.9389C13.4076 12.4702 13.6712 11.8347 13.6719 11.1719V2.82809C13.6712 2.16526 13.4076 1.52978 12.9389 1.06109C12.4702 0.592396 11.8348 0.328783 11.1719 0.328094ZM12.6719 11.1719C12.6715 11.5696 12.5133 11.9509 12.2321 12.2321C11.9509 12.5133 11.5696 12.6714 11.1719 12.6719H2.82813C2.43044 12.6714 2.04917 12.5133 1.76796 12.2321C1.48675 11.9509 1.32858 11.5696 1.32813 11.1719V2.82809C1.32858 2.43041 1.48675 2.04914 1.76796 1.76793C2.04917 1.48672 2.43044 1.32854 2.82813 1.32809H11.1719C11.5696 1.32854 11.9509 1.48672 12.2321 1.76793C12.5133 2.04914 12.6715 2.43041 12.6719 2.82809V11.1719ZM7.50002 3.96669C7.50002 4.06559 7.4707 4.16225 7.41576 4.24448C7.36082 4.3267 7.28273 4.39079 7.19137 4.42863C7.1 4.46648 6.99947 4.47638 6.90248 4.45709C6.80549 4.43779 6.7164 4.39017 6.64647 4.32025C6.57654 4.25032 6.52892 4.16123 6.50963 4.06424C6.49034 3.96725 6.50024 3.86672 6.53808 3.77535C6.57593 3.68399 6.64001 3.6059 6.72224 3.55096C6.80446 3.49602 6.90113 3.46669 7.00002 3.46669C7.13263 3.46669 7.25981 3.51937 7.35358 3.61314C7.44735 3.70691 7.50002 3.83409 7.50002 3.96669ZM7.50002 5.52789V10.0333C7.50002 10.1659 7.44735 10.2931 7.35358 10.3868C7.25981 10.4806 7.13263 10.5333 7.00002 10.5333C6.86742 10.5333 6.74024 10.4806 6.64647 10.3868C6.5527 10.2931 6.50002 10.1659 6.50002 10.0333V6.02789C6.36742 6.02789 6.24024 5.97522 6.14647 5.88145C6.0527 5.78768 6.00002 5.6605 6.00002 5.52789C6.00002 5.39529 6.0527 5.26811 6.14647 5.17434C6.24024 5.08057 6.36742 5.02789 6.50002 5.02789H7.00002C7.13263 5.02789 7.25981 5.08057 7.35358 5.17434C7.44735 5.26811 7.50002 5.39529 7.50002 5.52789Z" fill="black"/>
</svg>
