<svg width="76" height="68" viewBox="0 0 76 68" fill="none" xmlns="http://www.w3.org/2000/svg">
<path d="M10.08 67.5H35.88C37.1932 67.5 38.4935 67.2413 39.7068 66.7388C40.92 66.2362 42.0224 65.4997 42.951 64.5711C43.8796 63.6425 44.6162 62.5401 45.1188 61.3268C45.6213 60.1136 45.88 58.8132 45.88 57.5V48.5C45.88 47.4391 45.4585 46.4217 44.7084 45.6716C43.9582 44.9214 42.9408 44.5 41.88 44.5C40.8191 44.5 39.8017 44.9214 39.0515 45.6716C38.3014 46.4217 37.88 47.4391 37.88 48.5V57.5C37.88 58.0304 37.6692 58.5391 37.2942 58.9142C36.9191 59.2893 36.4104 59.5 35.88 59.5H10.08C9.54952 59.5 9.04082 59.2893 8.66574 58.9142C8.29067 58.5391 8.07996 58.0304 8.07996 57.5V10.5C8.07996 9.96957 8.29067 9.46086 8.66574 9.08579C9.04082 8.71071 9.54952 8.5 10.08 8.5H35.88C36.4104 8.5 36.9191 8.71071 37.2942 9.08579C37.6692 9.46086 37.88 9.96957 37.88 10.5V20.5C37.88 21.5609 38.3014 22.5783 39.0515 23.3284C39.8017 24.0786 40.8191 24.5 41.88 24.5C42.9408 24.5 43.9582 24.0786 44.7084 23.3284C45.4585 22.5783 45.88 21.5609 45.88 20.5V10.5C45.88 9.18678 45.6213 7.88642 45.1188 6.67317C44.6162 5.45991 43.8796 4.35752 42.951 3.42893C42.0224 2.50035 40.92 1.76375 39.7068 1.2612C38.4935 0.758657 37.1932 0.5 35.88 0.5H10.08C7.42779 0.5 4.88425 1.55357 3.00889 3.42893C1.13352 5.3043 0.0799561 7.84784 0.0799561 10.5V57.5C0.0799561 60.1522 1.13352 62.6957 3.00889 64.5711C4.88425 66.4464 7.42779 67.5 10.08 67.5Z" fill="black"/>
<path d="M58.39 15.55C57.6341 14.8048 56.6132 14.3903 55.5517 14.3978C54.4903 14.4053 53.4753 14.8342 52.73 15.59C51.9848 16.3459 51.5703 17.3669 51.5778 18.4283C51.5853 19.4898 52.0141 20.5048 52.77 21.25L62.15 30.5H23.39C22.3291 30.5 21.3117 30.9215 20.5616 31.6716C19.8114 32.4217 19.39 33.4392 19.39 34.5C19.39 35.5609 19.8114 36.5783 20.5616 37.3285C21.3117 38.0786 22.3291 38.5 23.39 38.5H62.16L52.78 47.75C52.0241 48.4953 51.5953 49.5103 51.5878 50.5717C51.5803 51.6332 51.9948 52.6542 52.74 53.41C53.4853 54.1659 54.5003 54.5948 55.5617 54.6023C56.6232 54.6098 57.6441 54.1953 58.4 53.45L74.73 37.35C75.108 36.9778 75.4081 36.5342 75.613 36.0449C75.8178 35.5556 75.9233 35.0305 75.9233 34.5C75.9233 33.9696 75.8178 33.4444 75.613 32.9552C75.4081 32.4659 75.108 32.0222 74.73 31.65L58.39 15.55Z" fill="black"/>
</svg>
