<svg width="22" height="26" viewBox="0 0 22 26" fill="none" xmlns="http://www.w3.org/2000/svg">
<path fill-rule="evenodd" clip-rule="evenodd" d="M16.5832 20.169H5.27318H2.10718C3.52618 18.18 4.55018 16.711 4.77118 16.369C4.85618 16.238 4.96118 16.06 5.05318 15.826C5.07518 15.771 5.14118 15.599 5.19418 15.361C5.23818 15.162 5.28318 14.877 5.27318 14.527V9.363C5.27318 6.583 7.52718 4.33 10.3082 4.33H11.5492C14.3292 4.33 16.5832 6.583 16.5832 9.363V14.527C16.5732 14.877 16.6172 15.162 16.6622 15.361C16.7152 15.599 16.7812 15.771 16.8032 15.826C16.8952 16.06 17.0002 16.238 17.0852 16.369C17.3062 16.711 18.3292 18.18 19.7492 20.169H16.5832ZM10.9352 23.381C9.97918 23.381 9.17718 22.746 8.90518 21.878H12.9642C12.6912 22.746 11.8902 23.381 10.9352 23.381ZM10.9352 1.7C11.6442 1.7 12.2522 2.123 12.5312 2.728C11.9022 2.597 10.7402 2.438 9.33718 2.729C9.61618 2.123 10.2262 1.7 10.9352 1.7ZM21.6442 19.908L18.5392 15.461C18.3942 15.252 18.3152 15.008 18.3152 14.758V9.013C18.2732 8.374 18.0482 6.132 16.2412 4.504C15.5932 3.919 14.9182 3.575 14.3872 3.368C14.3362 1.501 12.8132 0 10.9352 0C9.05518 0 7.53318 1.501 7.48218 3.368C6.93018 3.596 6.17518 3.995 5.46218 4.697C3.81918 6.316 3.59718 8.368 3.55318 9.013V14.758C3.55318 15.008 3.47618 15.252 3.33018 15.461L0.225182 19.908C-0.362818 20.751 0.269182 21.878 1.32918 21.878H7.16218C7.46518 23.694 9.03218 25.081 10.9352 25.081C12.8362 25.081 14.4032 23.694 14.7072 21.878H20.5392C21.6002 21.878 22.2322 20.751 21.6442 19.908Z" fill="black"/>
</svg>
