<svg width="96" height="96" viewBox="0 0 96 96" fill="none" xmlns="http://www.w3.org/2000/svg">
<path d="M92.8 38.8L82.2 37C81.6 35.1 80.8 33.3 79.9 31.5L86.1 22.8C87 21.5 86.9 19.7 85.8 18.6L77.3 10.1C76.2 9 74.4 8.8 73.1 9.8L64.4 16C62.7 15.1 60.8 14.3 58.9 13.7L57.2 3.2C56.9 1.6 55.6 0.5 54 0.5H42C40.4 0.5 39.1 1.6 38.8 3.2L37 13.8C35.1 14.4 33.3 15.2 31.5 16.1L22.8 9.9C21.5 9 19.7 9.1 18.6 10.2L10.1 18.7C9 19.8 8.8 21.6 9.8 22.9L16 31.6C15.1 33.3 14.3 35.2 13.7 37.1L3.2 38.8C1.6 39.1 0.5 40.4 0.5 42V54C0.5 55.6 1.6 56.9 3.2 57.2L13.8 59C14.4 60.9 15.2 62.7 16.1 64.5L9.9 73.2C9 74.5 9.1 76.3 10.2 77.4L18.7 85.9C19.8 87 21.6 87.2 22.9 86.2L31.6 80C33.3 80.9 35.2 81.7 37.1 82.3L38.9 92.9C39.2 94.5 40.5 95.6 42.1 95.6H54.1C55.7 95.6 57 94.5 57.3 92.9L59 82.2C60.9 81.6 62.7 80.8 64.5 79.9L73.2 86.1C74.5 87 76.3 86.9 77.4 85.8L85.9 77.3C87 76.2 87.2 74.4 86.2 73.1L80 64.4C80.9 62.7 81.7 60.8 82.3 58.9L92.9 57.1C94.5 56.8 95.6 55.5 95.6 53.9V42C95.5 40.4 94.4 39.1 92.8 38.8ZM48 65.1C38.5 65.1 30.9 57.4 30.9 48C30.9 38.5 38.6 30.9 48 30.9C57.4 30.9 65.1 38.5 65.1 48C65.1 57.5 57.5 65.1 48 65.1Z" fill="black"/>
</svg>
