<svg width="76" height="74" viewBox="0 0 76 74" fill="none" xmlns="http://www.w3.org/2000/svg">
<path d="M23.07 35.19L37.13 55.69C37.5892 56.3588 38.2042 56.9058 38.922 57.2839C39.6397 57.6619 40.4387 57.8597 41.25 57.86H41.33C42.1556 57.8459 42.9649 57.6276 43.6856 57.2245C44.4062 56.8214 45.0159 56.2461 45.46 55.55L74.92 9.37C75.2974 8.81664 75.5597 8.19309 75.6915 7.53638C75.8232 6.87967 75.8217 6.20318 75.687 5.54707C75.5522 4.89097 75.2871 4.26862 74.9072 3.71697C74.5273 3.16533 74.0404 2.69564 73.4755 2.33578C72.9106 1.97592 72.2791 1.73323 71.6186 1.62212C70.9581 1.51102 70.282 1.53375 69.6304 1.68898C68.9789 1.8442 68.3651 2.12876 67.8257 2.52575C67.2862 2.92275 66.832 3.42408 66.49 4L41.1 43.8L27.17 23.5C26.7072 22.8223 26.0847 22.269 25.3575 21.8888C24.6302 21.5086 23.8206 21.3133 23 21.32C22.187 21.3226 21.3868 21.5233 20.6689 21.905C19.951 22.2866 19.3369 22.8375 18.88 23.51L10 36.62V5C10 3.67392 9.47322 2.40215 8.53553 1.46447C7.59785 0.526784 6.32608 0 5 0C3.67392 0 2.40215 0.526784 1.46447 1.46447C0.526784 2.40215 0 3.67392 0 5L0 68.08C0 69.4061 0.526784 70.6779 1.46447 71.6155C2.40215 72.5532 3.67392 73.08 5 73.08H69.58C70.9061 73.08 72.1779 72.5532 73.1155 71.6155C74.0532 70.6779 74.58 69.4061 74.58 68.08C74.58 66.7539 74.0532 65.4821 73.1155 64.5445C72.1779 63.6068 70.9061 63.08 69.58 63.08H10V54.4L23.07 35.19Z" fill="black"/>
</svg>
