<svg width="50" height="50" viewBox="0 0 50 50" fill="none" xmlns="http://www.w3.org/2000/svg">
<path d="M31.5 0.900024H5.3C2.6 0.900024 0.5 3.10002 0.5 5.70002V44.3C0.5 47 2.7 49.1 5.3 49.1H31.6C34.3 49.1 36.4 46.9 36.4 44.3V5.70002C36.4 3.00002 34.2 0.900024 31.5 0.900024ZM18.9 11.4C18.4 11.4 17.9 11.4 17.4 11.4C13.9 11.4 10.4 11.4 7 11.4C5.1 11.4 5.1 8.40002 7 8.40002C7.5 8.40002 8 8.40002 8.5 8.40002C12 8.40002 15.5 8.40002 18.9 8.40002C20.8 8.40002 20.8 11.4 18.9 11.4ZM19.1 36C19 35.7 18.7 35.6 18.5 35.6C18.2 35.6 17.9 35.5 17.5 35.5C16.9 35.3 16.2 35 15.8 34.5C15.8 34.5 15.8 34.5 15.7 34.4C15.1 33.7 14.7 32.8 14.7 31.8C14.7 30.8 15.1 30 15.7 29.3C16 28.9 16.5 28.6 16.9 28.4L17 27.8C17.2 27.3 17.8 26.9 18.4 26.9C19.2 26.9 19.9 27.6 19.9 28.4C20.3 28.6 20.7 28.8 21 29.1C21.6 29.7 21.5 30.7 21 31.2C20.7 31.5 20.3 31.6 19.9 31.6C19.5 31.6 19.2 31.5 18.9 31.2C18.6 31 18.3 30.9 18 31.1C17.8 31.2 17.7 31.5 17.7 31.8C17.7 32.1 17.9 32.3 18.1 32.4C18.4 32.5 18.7 32.5 18.9 32.5C19.2 32.5 19.5 32.6 19.7 32.7C20.2 32.9 20.7 33.2 21.1 33.6C21.7 34.3 22.1 35.2 22.1 36.2C22.1 37.2 21.7 38.1 21 38.8C20.7 39.2 20.3 39.4 19.8 39.6C19.8 39.6 19.7 40.1 19.7 40.2C19.5 40.7 18.9 41.1 18.4 41.1C17.8 41.1 17.1 40.8 17 40.2C16.9 40 16.9 39.8 16.9 39.6C16.5 39.4 16.1 39.2 15.8 38.9C15.2 38.3 15.3 37.4 15.8 36.8C16.4 36.2 17.4 36.3 17.9 36.8C18.2 37 18.6 37.1 18.9 36.8C19.1 36.7 19.2 36.3 19.1 36ZM21 22.5C16.3 22.5 11.7 22.5 7 22.5C5.1 22.5 5.1 19.5 7 19.5C7.7 19.5 8.3 19.5 9 19.5C13.7 19.5 18.3 19.5 23 19.5C24.9 19.5 24.9 22.5 23 22.5C22.3 22.5 21.6 22.5 21 22.5ZM30.3 16.9C29.3 16.9 28.4 16.9 27.4 16.9C20.6 16.9 13.8 16.9 7 16.9C5.1 16.9 5.1 13.9 7 13.9C8 13.9 8.9 13.9 9.9 13.9C16.7 13.9 23.5 13.9 30.3 13.9C32.3 13.9 32.3 16.9 30.3 16.9Z" fill="white"/>
<path d="M46.6 16.6H49.6C49.6 15.5 49.6 14.4 49.6 13.4C49.6 12.6 48.9 11.9 48.1 11.9C45.9 11.9 43.7 11.9 41.5 11.9C41.2 11.9 40.9 11.9 40.6 11.9C39.8 11.9 39.1 12.6 39.1 13.4C39.1 14.5 39.1 15.6 39.1 16.6H42.1H46.6Z" fill="white"/>
<path d="M41.5 39.5C41.7 39.5 41.9 39.5 42.1 39.5C43.6 39.5 45.1 39.5 46.6 39.5C47.1 39.5 47.6 39.5 48.1 39.5H49.7C49.7 38.9 49.6 38.2 49.6 37.7C49.6 31.7 49.6 25.7 49.6 19.7H48.1H40.6H39.1C39.1 22.3 39.1 24.9 39.1 27.5C39.1 30.6 39.1 33.7 39.1 36.8C39.1 37.7 39.1 38.6 39.1 39.5H40.6C40.9 39.5 41.2 39.5 41.5 39.5Z" fill="white"/>
<path d="M48.1 42.5C47.8 42.5 47.5 42.5 47.2 42.5C46.7 42.5 46.1 42.5 45.6 42.5C44.8 42.5 44.1 42.5 43.3 42.5C43.3 42.5 43.3 42.5 43.2 42.5C42.3 42.5 41.5 42.5 40.6 42.5H39.7H39.6C40 43.3 40.6 44.1 41 44.9C41.7 46.1 42.3 47.2 43 48.4C43.5 49.4 45 49.4 45.6 48.4C46.7 46.4 47.9 44.5 48.9 42.5H48.1Z" fill="white"/>
</svg>
