<svg width="88" height="99" viewBox="0 0 88 99" fill="none" xmlns="http://www.w3.org/2000/svg">
<path d="M85.8 25C85.8 22.3 83.6 20.1 80.9 20.1H16.9L27.5999 9.19999C29.4999 7.29999 29.4999 4.19999 27.5999 2.19999C26.5999 1.19999 25.4 0.799988 24.1 0.799988C22.8 0.799988 21.6 1.29999 20.6 2.19999L1.49995 21.5C-0.400049 23.4 -0.400049 26.5 1.49995 28.4L20.7 47.8C21.6 48.7 22.9 49.3 24.2 49.3C25.5 49.3 26.7 48.8 27.7 47.9C28.6 47 29.2 45.7 29.2 44.4C29.2 43.1 28.6999 41.8 27.7999 40.9L16.7 29.9H80.8C83.6 29.9 85.8 27.7 85.8 25Z" fill="white"/>
<path d="M63.1 98.9C64.4 98.9 65.7 98.4 66.6 97.4L85.8 78C87.7 76.1 87.7 73 85.8 71.1L66.6 51.9C64.7 50 61.6 50 59.6 51.9C57.7 53.8 57.7 56.9 59.6 58.9L70.4 69.7H6.4C3.7 69.7 1.5 71.9 1.5 74.6C1.5 77.3 3.7 79.5 6.4 79.5H70.5L59.6 90.5C58.7 91.4 58.2 92.7 58.2 94C58.2 95.3 58.7 96.5 59.7 97.5C60.6 98.4 61.8 98.9 63.1 98.9Z" fill="white"/>
</svg>
